<svg width="229" height="71" viewBox="0 0 229 71" fill="none" xmlns="http://www.w3.org/2000/svg">
<g clip-path="url(#clip0_4_106)">
<path d="M66.8394 39.6828V33.1219L66.8243 26.5233L66.7639 19.9171L66.7865 13.2958L74.4421 13.3185L82.1128 13.2732L83.5171 19.2905L87.4355 14.9115L93.0904 13.2656L100.369 16.7008L102.211 24.7868L100.089 33.1596L92.2146 36.2023L83.5851 32.9331L83.4643 39.6601L75.1518 39.7507L66.8318 39.6752L66.8394 39.6828ZM85.5405 28.8713L85.5254 21.4724L84.6647 20.3097L83.5549 21.042L83.5398 29.3167L84.6647 30.034L85.5405 28.8864V28.8713Z" fill="#F0EAD2"/>
<path d="M104.249 30.4941L104.189 21.9023L104.143 13.2803L112.524 13.2577L120.927 13.2426L120.882 19.3278L120.844 25.3451L121.712 26.5455L122.792 25.783L122.867 19.5543L122.83 13.2728L131.217 13.3936L139.59 13.2879L139.492 19.9091L139.553 26.5078L139.643 33.1139L139.628 39.7805L132.327 39.7125L125.027 39.7805L122.792 31.4454L118.013 37.138L111.067 39.7654L105.427 36.9417L104.249 30.4866V30.4941Z" fill="#F0EAD2"/>
<path d="M141.546 39.705L141.516 33.1215L141.561 26.5228V19.9167L141.508 13.2727L149.179 13.235L156.766 13.3709L158.329 21.5927L162.587 15.5755L169.647 13.3633L177 14.4807L176.925 20.5735L176.977 26.6663L170.847 25.8282L164.732 25.3526L158.284 29.8976L158.208 39.6899L149.881 39.7276L141.538 39.705H141.546Z" fill="#F0EAD2"/>
<path d="M178.903 26.4927L181.273 18.603L188.287 14.3373L196.6 13.2577L205.01 14.1712L212.122 18.452L214.244 26.4927L213.987 30.8716L204.799 30.7886L195.611 30.8112L195.656 31.0453L202.421 33.1744L208.378 32.9101L214.334 32.3061L214.38 38.3536L206.528 39.3124L198.706 39.6446L191.904 39.3728L185.358 37.5533L180.398 33.0611L178.91 26.4927H178.903ZM195.611 28.8709L197.634 28.886L197.672 20.9964L196.6 19.6223L195.618 20.9964V28.8709H195.611Z" fill="#F0EAD2"/>
<path d="M65.9183 51.0375L70.1009 43.6914L78.957 42.3098L89.3457 43.2158L89.391 51.2716L80.4519 50.207L76.9638 52.2908L82.6564 55.3938L89.4136 54.9031L89.3306 58.8592L79.4251 59.803L70.3727 58.3911L65.9183 51.03V51.0375Z" fill="#F0EAD2"/>
<path d="M90.6518 51.0373L94.17 43.8045L102.437 42.3398L110.712 43.797L114.2 51.0373L110.787 58.3834L102.437 59.8556L94.0719 58.4136L90.6518 51.0298V51.0373ZM103.056 55.7183L103.147 49.2782L102.437 48.2816L101.743 49.2782L101.795 55.7183L102.43 56.662L103.041 55.7183H103.056Z" fill="#F0EAD2"/>
<path d="M115.521 59.8028L115.506 49.7538L119.674 43.3364L127.797 42.3323L138.971 43.2232L139.024 50.69L130.583 49.8746L127.261 51.7244V52.6379L133.12 52.6606L138.986 52.6757L138.956 57.8851L133.12 57.9228L127.254 57.9379V59.8481L121.38 59.7877L115.529 59.8028H115.521Z" fill="#F0EAD2"/>
<path d="M140.292 59.8179L140.338 49.7539L144.475 43.3667L152.584 42.3021L163.81 43.2006L163.826 50.6901L155.37 49.8822L152.085 51.7244L152.033 52.6531L157.899 52.6833H163.758L163.795 57.9455L157.899 57.8776L152.04 57.9531L152.017 59.7802L146.159 59.8557L140.285 59.8179H140.292Z" fill="#F0EAD2"/>
<path d="M165.094 51.0374L168.756 44.0084L176.834 42.3173L185.033 43.8574L188.544 51.045L188.37 53.9592H182.27L176.177 53.929V54.0725L180.7 55.4239L188.544 54.9332V58.8893L178.231 59.7953L169.405 58.3231L165.101 51.0525L165.094 51.0374ZM176.185 52.6153L177.544 52.6304L177.521 47.3908L176.842 46.4697L176.155 47.3908L176.185 52.6229V52.6153Z" fill="#F0EAD2"/>
<path d="M189.903 51.0374L193.527 43.9556L201.636 42.3021L209.805 43.9103L213.323 51.0374L213.164 53.9063H207.071L200.979 53.9441L200.956 54.0573L205.494 55.4994L213.353 54.9029L213.413 58.9044L203.025 59.7802L194.176 58.3457L189.895 51.0374H189.903ZM200.971 52.6153H202.285L202.307 47.3832L201.636 46.3942L200.926 47.3832L200.971 52.6153Z" fill="#F0EAD2"/>
<path d="M22.6497 1.60814L20.5433 4.18266L18.7766 7.00632L17.9461 9.59594L17.4856 12.2762L17.5837 14.9941L17.848 17.697L18.5954 20.3093L19.5014 22.8611L20.5358 25.3753L21.8343 27.7535L23.1556 30.1242L24.507 32.4797L26.0321 34.722L27.3986 37.0776L28.8633 39.3577L30.4865 41.6831L32.0645 44.0462L33.5141 46.4848L34.9787 48.9083L36.3906 51.3772L37.6137 53.9366L38.716 56.5488L39.6748 59.2215L40.1806 62.015L40.2637 64.2875L39.8635 66.56L38.9424 68.5909L42.9288 68.7268L43.714 65.8956L43.7895 63.0191L43.0194 60.3842L42.0983 57.7946L41.1319 55.2201L39.9541 52.7361L38.7688 50.2598L37.44 47.8513L36.1867 45.4052L34.9108 42.9665L33.5896 40.5883L32.4193 38.1271L31.1887 35.696L29.8524 33.3178L28.8482 30.781L27.7308 28.2971L26.7116 25.7754L25.783 23.2084L25.0355 20.5886L24.4768 17.9235L24.0012 15.2433L23.669 12.5404L23.752 9.81489L23.7445 7.08182L24.3183 5.63979L25.1186 4.71115L26.4322 3.11812L27.8365 1.60059" fill="#F0EAD2"/>
<path d="M42.9288 70.2369C42.9288 70.2369 42.891 70.2369 42.8759 70.2369L38.882 70.101C38.3762 70.0859 37.9157 69.8141 37.6514 69.3837C37.3872 68.9534 37.3494 68.4249 37.5608 67.9643L38.4064 66.1146L38.7461 64.1894L38.6782 62.1811L38.2101 59.6217L37.3041 57.1076L36.2169 54.5255L35.0391 52.0793L33.6575 49.6558L30.7734 44.8465L29.2182 42.5211L27.61 40.2184L26.1076 37.8855L24.7411 35.5224L23.2462 33.3253C23.2462 33.3253 23.2084 33.2649 23.1858 33.2272L21.8268 30.8716L19.1919 26.0925C19.1617 26.0397 19.139 25.9944 19.1164 25.9415L18.0896 23.4274L17.1534 20.8076C17.1534 20.8076 17.1307 20.7472 17.1232 20.7094L16.3833 18.0972C16.3607 18.0141 16.3456 17.9235 16.3305 17.8329L16.0587 15.13C16.0587 15.13 16.0587 15.0621 16.0587 15.0319L15.9681 12.3139C15.9681 12.2082 15.9681 12.1101 15.9907 12.0044L16.4513 9.32417C16.4664 9.25622 16.4815 9.18827 16.5041 9.12032L17.327 6.5307C17.3648 6.4099 17.4176 6.29665 17.4856 6.1834L19.2598 3.36729C19.29 3.31444 19.3278 3.26159 19.3655 3.21629L21.4644 0.63422C21.9929 -0.015072 22.9442 -0.105671 23.5859 0.415273C24.2352 0.943767 24.3258 1.89506 23.8049 2.5368L21.7588 5.04337L20.1356 7.62544L19.4033 9.93571L18.988 12.3592L19.0711 14.8734L19.3202 17.395L20.0148 19.8336L20.9133 22.3402L21.8872 24.7109L24.4617 29.3843L25.7754 31.6644L27.2703 33.8614C27.2703 33.8614 27.308 33.9218 27.3307 33.952L28.6897 36.3075L30.1241 38.5348L31.7172 40.8148L33.3027 43.178L32.2683 41.3131C32.2683 41.3131 32.2381 41.2603 32.223 41.2301L31.0452 38.7688L29.8297 36.3679L28.5236 34.0501C28.4934 33.9897 28.4632 33.9293 28.433 33.8689L27.4288 31.3322L26.3416 28.9086L25.2998 26.3341L24.3485 23.7218C24.3485 23.7218 24.3258 23.6539 24.3183 23.6161L23.5708 20.9963C23.5708 20.9963 23.5557 20.9284 23.5482 20.8906L22.9895 18.2255L22.5063 15.5C22.5063 15.5 22.4987 15.4471 22.4912 15.4169L22.159 12.7141C22.1514 12.6386 22.1439 12.5631 22.1514 12.4876L22.2345 9.76206V7.08184C22.2269 6.88555 22.2571 6.6968 22.3326 6.5156L22.9064 5.07357C22.9668 4.91502 23.0574 4.77157 23.1707 4.64322L23.9785 3.71458L25.2696 2.15175C25.2696 2.15175 25.3073 2.10645 25.33 2.0838L26.7342 0.573821C27.3005 -0.0377217 28.2593 -0.0754713 28.8709 0.490772C29.4824 1.05702 29.5202 2.01585 28.9539 2.6274L27.5798 4.10718L25.6319 6.43255L25.262 7.36874V9.80736L25.1941 12.4649L25.5036 15.0168L25.9717 17.6593L26.5077 20.2262L27.225 22.7404L28.1385 25.2469L29.1427 27.7233L30.2298 30.1544L31.2189 32.6534L32.5099 34.941L33.7708 37.4325L34.941 39.8787L36.2396 42.2191L38.7914 47.1492L40.0976 49.5199C40.0976 49.5199 40.1278 49.5728 40.1353 49.5954L42.4985 54.5632C42.4985 54.5632 42.5287 54.6387 42.5438 54.6765L43.5101 57.251L44.4388 59.8633C44.4388 59.8633 44.4539 59.9161 44.4614 59.9463L45.2315 62.5812C45.2768 62.7322 45.2995 62.8908 45.2919 63.0493L45.2164 65.9259C45.2164 66.0467 45.1938 66.1675 45.1636 66.2883L44.3859 69.1195C44.2047 69.7763 43.6083 70.2293 42.9288 70.2293V70.2369ZM41.2527 67.1565L41.7963 67.1716L42.2116 65.6692L42.2795 63.2154L41.4339 60.4295L41.6755 61.7432C41.6906 61.8112 41.6982 61.8867 41.6982 61.9622L41.7812 64.2347C41.7812 64.3404 41.7812 64.4461 41.7586 64.5518L41.3584 66.8243C41.3358 66.9375 41.3056 67.0508 41.2603 67.1565H41.2527Z" fill="#F0EAD2"/>
<path d="M47.7758 1.65344L49.3689 3.79007L50.675 6.11544L51.7093 8.57671L52.8192 11.0002L53.6346 13.5446L54.231 16.1493" fill="#F0EAD2"/>
<path d="M54.231 17.6592C53.544 17.6592 52.9173 17.1836 52.7588 16.489L52.1774 13.9522L51.4074 11.5589L50.3353 9.21087L49.316 6.7949L48.1005 4.62808L46.5679 2.5745C46.0696 1.91011 46.2055 0.958817 46.8774 0.460522C47.5418 -0.037772 48.4931 0.0981265 48.9914 0.770069L50.5844 2.90669C50.6222 2.95954 50.6599 3.01239 50.6901 3.07279L51.9962 5.39817C52.0264 5.44347 52.0491 5.49632 52.0717 5.54917L53.1061 8.00289L54.1933 10.3962C54.2159 10.4491 54.2386 10.5019 54.2537 10.5623L55.0766 13.1066C55.0917 13.1519 55.0993 13.1897 55.1144 13.235L55.7108 15.8397C55.8996 16.6551 55.3862 17.4629 54.5783 17.6441C54.4651 17.6743 54.3518 17.6819 54.2386 17.6819L54.231 17.6592Z" fill="#F0EAD2"/>
<path d="M48.6743 69.5271C48.4855 69.5271 48.2892 69.4893 48.1005 69.4138C47.421 69.1345 47.036 68.4022 47.2021 67.6849L47.7909 65.0726L47.6324 62.6189L46.8925 60.2256L46.0016 57.7643L45.1636 55.2653L44.0462 52.9173L42.8307 50.5693C42.8307 50.5693 42.8005 50.5089 42.7854 50.4711L41.751 48.0627L39.1916 43.4195L37.9459 40.9733L36.6473 38.6933L34.1936 33.816L33.0082 31.3849C33.0082 31.3849 32.9856 31.3321 32.9705 31.3094L31.9286 28.8255L29.9505 23.7973C29.9505 23.7973 29.9279 23.7293 29.9128 23.6991L29.0898 21.1322C29.0747 21.0869 29.0596 21.0416 29.0521 20.9963L28.4707 18.3689L27.9422 15.6962C27.9271 15.6283 27.9196 15.5603 27.9196 15.4999L27.6176 10.1093C27.6176 10.0715 27.6176 10.0262 27.6176 9.98849L27.7006 7.29317C27.7082 6.93078 27.8516 6.58348 28.1008 6.31169L28.8935 5.45855L30.864 2.91423C30.9093 2.85383 30.9622 2.80098 31.015 2.74813L33.3933 0.483154L35.477 2.67263L33.1819 4.85455L31.2415 7.36112C31.2415 7.36112 31.1887 7.42907 31.1585 7.45927L30.7055 7.94247L30.6451 10.0111L30.932 15.1979L31.4378 17.7423L31.9965 20.2715L32.7817 22.7176L34.7371 27.693L35.7413 30.0939L38.0969 34.8655L39.3124 37.2588L40.6034 39.5313L41.8567 41.9926L44.4312 46.666C44.4539 46.7113 44.4765 46.749 44.4916 46.7943L45.5335 49.2254L46.7415 51.5734L47.9193 54.0422C47.9495 54.0951 47.9721 54.1555 47.9872 54.2159L48.8404 56.7677L49.7388 59.2592L50.5014 61.7205L51.2413 60.1577L52.1397 57.7266L52.7361 55.1294L55.6806 55.8014L55.0615 58.4891C55.0464 58.5495 55.0313 58.6099 55.0087 58.6703L54.0574 61.2599C54.0423 61.3052 54.0272 61.343 54.0045 61.3883L52.8192 63.8722C52.8192 63.8722 52.789 63.9251 52.7814 63.9477L51.4527 66.3561C51.4527 66.3561 51.43 66.4014 51.4149 66.4241L49.9502 68.7872C49.6633 69.2402 49.1726 69.4969 48.6667 69.4969L48.6743 69.5271Z" fill="#F0EAD2"/>
<path d="M1.60058 15.5529L2.40087 13.0992L3.28421 10.6832L4.2053 8.26722L5.33024 5.94185L6.71187 3.75993L8.0935 1.578" fill="#F0EAD2"/>
<path d="M1.60058 17.0628C1.44203 17.0628 1.28348 17.0402 1.13249 16.9873C0.339746 16.7306 -0.0905988 15.8775 0.166098 15.0847L0.966389 12.631L2.80102 7.73113C2.81612 7.69338 2.83122 7.65563 2.85387 7.61788L3.9788 5.29251C4.00145 5.23966 4.03165 5.18681 4.06185 5.14151L6.81757 0.785207C7.26301 0.083065 8.1992 -0.128333 8.90134 0.317112C9.60349 0.762557 9.81488 1.69875 9.36944 2.40089L6.65147 6.68924L5.59448 8.87871L3.81271 13.6352L3.02751 16.036C2.81612 16.6702 2.22722 17.0779 1.59303 17.0779L1.60058 17.0628Z" fill="#F0EAD2"/>
<path d="M35.4846 69.278L32.6987 68.1153L33.8765 65.2992L34.2238 62.6114L33.6122 60.2861L32.8648 57.8323L31.8304 55.4843L30.5696 53.159L29.3994 50.7354L27.9196 48.4931L26.5681 46.2055L25.0431 44.0236L23.4953 41.6378L22.1665 39.3275L20.6868 37.1154L16.3305 30.026L15.0696 27.5194L13.9447 24.8996L13.0915 22.3251L12.2611 19.5618L11.6948 16.7004L11.5212 13.9145L11.6948 10.9172L12.2686 8.04821L13.2123 5.3831L14.3448 2.85387L16.104 0.702148L18.4369 2.61228L16.9345 4.44691L15.9907 6.56088L15.1527 8.94665L14.677 11.3928L14.5487 13.8994L14.6997 16.406L15.2055 18.8899L15.9681 21.4116L16.791 23.8879L17.8253 26.2737L19.0031 28.6066L20.3772 30.8792L23.2311 35.4921L24.7562 37.7798L26.0925 40.0976L27.5496 42.3399L29.1351 44.62L30.5016 46.9227L32.0796 49.3311L33.2574 51.7849L34.571 54.2159L35.7262 56.866L36.5189 59.4556L37.2966 62.4151L36.8134 66.0844L35.4846 69.278Z" fill="#F0EAD2"/>
<path d="M1.67609 55.3408L2.46883 58.1645L3.54092 60.8976L4.62055 63.6231L6.03239 66.1976L7.58012 68.6891" fill="#F0EAD2"/>
<path d="M7.58011 70.1991C7.07427 70.1991 6.58352 69.9499 6.29663 69.4894L4.7489 66.9979C4.7489 66.9979 4.7187 66.9526 4.7036 66.9224L3.29931 64.3479C3.26911 64.2951 3.24646 64.2347 3.22381 64.1818L1.06454 58.7157C1.04944 58.6704 1.02679 58.6251 1.01924 58.5722L0.2265 55.7486C2.39909e-06 54.9483 0.468097 54.1102 1.26839 53.8837C2.07623 53.6572 2.90672 54.1253 3.13322 54.9256L3.91086 57.6738L6.00218 62.9738L7.34607 65.4276L8.87115 67.8813C9.30904 68.591 9.09764 69.5196 8.38795 69.9575C8.13881 70.1085 7.86701 70.184 7.59521 70.184L7.58011 70.1991Z" fill="#F0EAD2"/>
<path d="M54.2612 16.1342L54.3669 13.2275L54.2763 10.3283L54.2914 7.42159L54.2386 4.50733L54.3518 1.53266L51.0676 1.51001L47.8438 1.58551" fill="#F0EAD2"/>
<path d="M54.2612 17.6441C54.2612 17.6441 54.2235 17.6441 54.2084 17.6441C53.3779 17.614 52.721 16.9194 52.7512 16.0813L52.8494 13.2274L52.7663 10.3736L52.7814 7.41402L52.7286 4.5375C52.7286 4.5375 52.7286 4.48465 52.7286 4.45445L52.7814 3.03507L51.0525 3.01997L47.874 3.08791C47.0511 3.08791 46.3489 2.44617 46.3338 1.60813C46.3187 0.777641 46.9756 0.0830491 47.8136 0.0679492L51.0374 0L54.3669 0.0226497C54.7746 0.0226497 55.1672 0.196298 55.4466 0.490744C55.7259 0.785191 55.8769 1.18534 55.8618 1.59303L55.7486 4.5224L55.8014 7.39137L55.7863 10.3283L55.8694 13.1821C55.8694 13.1821 55.8694 13.2425 55.8694 13.2803L55.7712 16.187C55.741 17.0024 55.0766 17.6441 54.2612 17.6441Z" fill="#F0EAD2"/>
<path d="M0.173651 55.3786L0.105702 50.071L0.128352 47.3833L0.0302028 44.7937L0.0075531 42.0455L0.151001 39.403L0.0453027 34.103L0.158551 31.4077V28.8105L0.105702 26.1907L0.015103 15.5528L3.03507 15.5453L3.12567 26.1454L3.17852 28.7803V31.4681L3.07282 34.1407L3.17097 39.4559L3.02752 42.1134L3.05017 44.7257L3.14077 47.338L3.12567 50.0559L3.19362 55.356L0.173651 55.3786Z" fill="#F0EAD2"/>
<path d="M8.13126 3.17094L8.11616 0.150975L14.1636 0.0905762L17.2289 0.135876L17.1836 3.15584L14.1561 3.11054L8.13126 3.17094Z" fill="#F0EAD2"/>
<path d="M1.63833 15.5528L1.57793 12.7669L1.61568 9.9734L1.54773 7.18748L1.66853 4.39401L1.54773 1.54769L4.85459 1.54014L8.1237 1.53259" fill="#F0EAD2"/>
<path d="M1.63882 17.0631C0.815883 17.0631 0.14394 16.4063 0.128841 15.5833L0.0759912 12.7974L0.106191 9.96619L0.0457916 7.23312C0.0457916 7.23312 0.0457916 7.16517 0.0457916 7.13497L0.16659 4.40945L0.0382417 1.61598C0.0231418 1.20829 0.17414 0.80059 0.453487 0.506144C0.740384 0.204147 1.13298 0.038049 1.54067 0.038049L8.11665 0.0229492C8.94714 0.0229492 9.62663 0.694892 9.62663 1.53293C9.62663 2.36342 8.95469 3.04292 8.11665 3.04292H3.11861L3.17146 4.3264C3.17146 4.3717 3.17146 4.417 3.17146 4.45475L3.05066 7.19537L3.11106 9.93599L3.08086 12.7748L3.13371 15.5154C3.14881 16.3459 2.48441 17.0405 1.65392 17.0556H1.62372L1.63882 17.0631Z" fill="#F0EAD2"/>
<path d="M19.9393 3.17846L17.2063 3.17091V0.150946L19.9242 0.158496L22.6271 0.128296L22.6573 3.14826L19.9393 3.17846Z" fill="#F0EAD2"/>
<path d="M27.829 3.18605L22.6346 3.1634C21.8041 3.1634 21.1247 2.48391 21.1322 1.64587C21.1322 0.815375 21.8117 0.143433 22.6422 0.143433L27.8365 0.166082C28.667 0.166082 29.3465 0.853124 29.339 1.68361C29.339 2.51411 28.6595 3.18605 27.829 3.18605Z" fill="#F0EAD2"/>
<path d="M42.9213 70.1463L38.9198 70.1312C38.0893 70.1312 37.4098 69.4517 37.4174 68.6136C37.4174 67.7831 38.0969 67.1112 38.9273 67.1112L42.9288 67.1263C43.7593 67.1263 44.4388 67.8058 44.4312 68.6438C44.4312 69.4743 43.7517 70.1463 42.9213 70.1463Z" fill="#F0EAD2"/>
<path d="M20.8453 70.267L18.1726 70.1537L15.5755 70.2141L10.2301 70.1009L7.63296 70.1613L7.56501 67.1413L10.215 67.0809L12.9179 67.1187L15.5906 67.1942L18.2104 67.1338L20.8302 67.247L23.4576 67.1187L31.4152 67.247L34.0199 67.1791L34.103 70.1915L31.4152 70.267H31.3774L28.735 70.1991L23.5029 70.1386L20.8453 70.267Z" fill="#F0EAD2"/>
<path d="M38.8821 70.2519L36.451 70.199L34.0728 70.2217L34.0426 67.2017L36.4736 67.1791L38.9576 67.2395L38.8821 70.2519Z" fill="#F0EAD2"/>
<path d="M1.56283 55.3711L1.61568 58.0287L1.63078 60.6862L1.50998 63.3438L1.60813 66.0089L1.63078 68.6287L4.59789 68.6589L7.59521 68.6061" fill="#F0EAD2"/>
<path d="M4.62055 70.1689L1.62323 70.1463C0.800291 70.1463 0.135898 69.4743 0.128349 68.6514L0.105699 66.0315L0 63.4042C0 63.3664 0 63.3211 0 63.2834L0.120799 60.6258L0.0603993 55.4013C0.0452995 54.5708 0.709692 53.8762 1.54018 53.8611H1.57038C2.39332 53.8611 3.06527 54.5179 3.08036 55.3409L3.13321 57.9984L3.14831 60.6787L3.03507 63.3513L3.14076 67.1338L4.62055 67.1489L7.58766 67.1036H7.61031C8.43325 67.1036 9.1052 67.7605 9.1203 68.591C9.1354 69.4215 8.471 70.1085 7.63296 70.1236L4.6281 70.1689H4.62055Z" fill="#F0EAD2"/>
<path d="M55.7712 55.5447L52.7512 55.4616L52.8267 52.6379L52.8645 49.8445L52.8041 47.0812L52.8569 44.2122L52.7361 38.6404L52.7588 35.7941L52.6908 33.0308L52.7588 30.1468L52.7512 27.3684L52.7059 24.5825L52.789 21.706L52.8041 18.9276L52.789 16.1417L55.809 16.119L55.8241 18.9276L55.809 21.7588L55.7259 24.5976L55.7712 27.3457V30.177L55.7108 33.0233L55.7787 35.7639L55.7561 38.6329L55.8769 44.2047L55.8241 47.0812L55.8844 49.8369L55.8467 52.7059L55.7712 55.5447Z" fill="#F0EAD2"/>
<path d="M27.8818 3.16337L27.7912 0.1434L31.1056 0.0452512L34.4578 0.0301514L34.4729 3.05012L31.1585 3.05767L27.8818 3.16337Z" fill="#F0EAD2"/>
<path d="M45.156 3.18608L39.8258 3.03508L37.1456 3.14833L34.4201 3.06528L34.5107 0.0453179L37.1305 0.128367L39.7956 0.00756836L45.1711 0.158567L47.7985 0.0906174L47.8815 3.11058L45.156 3.18608Z" fill="#F0EAD2"/>
<path d="M45.9261 70.252L42.8382 70.0934L42.9968 67.0734L45.9714 67.232L48.9385 67.164L51.6641 67.2169L52.7663 67.2018L52.7135 62.4906L52.8418 59.365L52.7361 55.5447L55.7561 55.4617L55.8618 59.3876L55.7259 62.5359L55.8392 70.1689L51.6565 70.2369L48.9461 70.184L45.9261 70.252Z" fill="#F0EAD2"/>
<path d="M53.778 68.1758L51.6791 68.1531L49.5576 68.1909L50.4032 65.7749L51.3469 63.374L52.3662 61.0033L53.3326 59.5764L53.7856 61.9773L54.299 64.3631L53.778 68.1758Z" fill="#F0EAD2"/>
<path d="M204.225 70.5312L193.066 70.3953H187.547L181.983 70.3123H176.464L170.922 70.5161L165.373 70.3274L159.832 70.4708L154.282 70.2821L148.779 70.3727H143.207L137.658 70.3274L132.161 70.4331L126.567 70.3274L121.093 70.4708L109.949 70.2896L104.445 70.35L98.919 70.4633L93.3547 70.5161L87.7451 70.3349L82.2487 70.3198L76.7147 70.3576L71.1428 70.3123L60.0671 70.4406L53.0306 70.2519L53.1665 63.238L53.0381 57.7039L53.1438 52.1019L52.8871 46.5074L52.9702 40.8676L52.8871 35.3109L53.0155 29.656L52.872 24.1295L52.9098 18.4821L53.091 12.9027L52.8796 7.34601L52.9475 0.128293L60.0218 0.0829937L65.5861 0.271742L71.0824 0.173593L76.6392 0.309491L82.1808 0.120743H82.2261L87.7149 0.249092L93.2565 -5.53373e-05L98.851 0.128293L104.393 0.249092H109.897L115.446 -0.0227051L120.995 0.241542L126.529 0.0150445H126.589L132.093 0.233992L137.597 0.158493L143.124 0.0376942L148.733 0.0150445L154.267 0.294391L159.764 0.233992L165.298 -5.53373e-05L170.9 0.173593L176.396 0.188692L181.923 0.150943L193.059 0.37744L198.525 0.211342L204.135 0.279291L209.661 0.264192L215.225 0.317041L220.722 0.143393L227.909 0.0980935L227.887 7.27806L227.955 12.8499L227.773 18.4519L228.007 24.054L227.758 29.656L227.97 35.258L227.713 40.8374L228.03 46.4395V52.0339L228 57.6435L227.834 63.2456L228 70.4708L220.805 70.5161L215.203 70.3274H209.714L204.233 70.5161L204.225 70.5312ZM193.089 67.3754L204.187 67.5113L209.654 67.3074H215.248L220.835 67.5037L224.897 67.4811L224.799 63.2531V63.2154L224.965 57.6058L224.995 52.0415V46.4999L224.663 40.8676L224.927 35.258L224.716 29.6636L224.965 24.0691L224.731 18.4821L224.919 12.8348L224.852 7.30826L224.867 3.15581L220.767 3.17846L215.248 3.35211L209.638 3.29926L204.112 3.31436L198.54 3.24641L193.066 3.41251L181.9 3.19356L176.396 3.23131L170.839 3.21621L165.313 3.04256L159.832 3.29171L154.192 3.35211H154.147L148.65 3.07276L143.146 3.09541L137.635 3.21621L132.04 3.29171H132.003L126.521 3.07276L120.972 3.29926L115.438 3.03501L109.964 3.29171H104.355L93.2867 3.05766L87.7451 3.30681L82.1959 3.17846L76.6543 3.36721H76.609L71.0749 3.23131L65.5634 3.32946L59.984 3.14071L55.9373 3.16336L55.892 7.33846L56.1034 12.9254L55.9222 18.5727L55.8844 24.1295L56.0279 29.6711L55.9071 35.3411L55.9901 40.8827L55.9146 46.4772L56.1713 52.0793L56.0656 57.719L56.194 63.2531L56.1109 67.3301L60.0973 67.4358L71.1428 67.2999L76.7222 67.3452L82.2412 67.3074L87.7979 67.3225L93.3924 67.5037L98.8737 67.4509L104.4 67.3376L109.957 67.2772L121.085 67.4584L126.567 67.315L132.169 67.4207L137.65 67.315L143.229 67.3603H148.756L154.313 67.2621L159.847 67.4509L165.388 67.3074L170.922 67.4962L176.411 67.2999H182.006L187.57 67.3829H193.081L193.089 67.3754Z" fill="#F0EAD2"/>
</g>
<defs>
<clipPath id="clip0_4_106">
<rect width="228.03" height="70.5313" fill="white"/>
</clipPath>
</defs>
</svg>
